# xmcd
#
# Track frame offsets: 
#        150
#        11995
#        25505
#        32483
#        44505
#        53392
#        66227
#        83684
#        95635
#        105356
#        122159
#        139752
#        152973
#        168354
#        177674
#        189078
#        201736
#
# Disc length: 2758 seconds
#
# Revision: 0
# Processed by: cddbd v1.5.2PL0 Copyright (c) Steve Scherf et al.
# Submitted via: ExactAudioCopy v0.95b4
#
DISCID=e20ac411
DTITLE=Various Artist - Play Christmas
DYEAR=2009
DGENRE=Acid
TTITLE0=(01) The Platters - We Wish You A Merry Christmas
TTITLE1=(02) Orlando Sayers - Run Run Rudolph
TTITLE2=(03) The Beach Boys - The Man With The Toys
TTITLE3=(04) Clyde McPhater and The Drifters - White Christmas
TTITLE4=(05) Stormy Weather - Doo Wop Yule Pop
TTITLE5=(06) Aaron Neville - Merry Christmas Baby
TTITLE6=(07) Jacob Miller - Wish You A Merry Christmas
TTITLE7=(08) Billy May - Rudolph, The Red-nosed Reindeer
TTITLE8=(09) Elvis Prisley - Blue Christmas
TTITLE9=(10) The Brian Setzer Orchestra - Baby Its Cold Outsite
TTITLE10=(11) Papa Don Vappie's New Orleans JAzz Band - Please Come Ho
TTITLE10=me For Chrismas
TTITLE11=(12) Tony Bennett - My Favourite Things
TTITLE12=(13) HArry Belafonte - The Baby Boy
TTITLE13=(14) Johny Cash - Silent Night
TTITLE14=(15) The Jordanaires - Amazing Grace
TTITLE15=(16) Los Granadians Del Espacio Exterior - Adeste Fideles
TTITLE16=(17) Richard Cheese - Jingle Bells
EXTD=
EXTT0=
EXTT1=
EXTT2=
EXTT3=
EXTT4=
EXTT5=
EXTT6=
EXTT7=
EXTT8=
EXTT9=
EXTT10=
EXTT11=
EXTT12=
EXTT13=
EXTT14=
EXTT15=
EXTT16=
PLAYORDER=
